<svg id="Capa_1" data-name="Capa 1" xmlns="http://www.w3.org/2000/svg" viewBox="0 0 1120.22 1120.22"><defs><style>.cls-1,.cls-3{fill:#fff;}.cls-1{stroke:#1d1d1b;stroke-miterlimit:10;}.cls-2{fill:#7bc9cf;}</style></defs><title>Hydron 1</title><rect class="cls-1" x="0.5" y="0.5" width="1119.22" height="1119.22"/><path class="cls-2" d="M107.12,1048h638c45.38,0,92-36.78,104.17-82.16l217.45-811.5C1078.9,109,1052,72.2,1006.6,72.2h-638c-45.38,0-92,36.78-104.17,82.16L47,965.86C34.82,1011.24,61.74,1048,107.12,1048Z"/><path class="cls-3" d="M852.11,191.84H733.84L665.15,454.55H506.94l70.25-262.71H459c-45.38,0-92,36.79-104.17,82.16L201.46,846.22c-12.16,45.37,14.77,82.16,60.14,82.16H378.66l70.26-262.71H605.57l-68.7,262.71H654.76c45.37,0,92-36.79,104.17-82.16L912.26,274C924.41,228.63,897.49,191.84,852.11,191.84Z"/></svg>